<svg xmlns="http://www.w3.org/2000/svg" viewBox="0 0 16 16"><g id="transform_transfer_2d_icon"><polygon points="5.82 10.27 3 8 1.99 11.48 5.82 10.27" style="fill:#a5b7f3;stroke:#a5b7f3;stroke-linejoin:round;stroke-width:0.619659284975729px"/><path d="M3,8A9,9,0,0,0,4,9.7c.4.46.64,1,1,1.46A2.61,2.61,0,0,0,6.26,12,6,6,0,0,0,8,12.25H8a.75.75,0,1,1,0,1.5H8a7.47,7.47,0,0,1-2.2-.28,4.18,4.18,0,0,1-2-1.35,3.87,3.87,0,0,1-1.06-1.94A3.76,3.76,0,0,1,3,8,0,0,0,0,1,3,8Z" style="fill:#a5b7f3"/><polygon points="4 6.73 1.73 5.36 1.73 2.64 4 4 4 6.73" style="fill:#a5b7f3"/><polygon points="4 6.73 6.27 5.36 6.27 2.64 4 4 4 6.73" style="fill:#728cba"/><polygon points="1.73 2.64 4 4 6.27 2.64 4 1.27 1.73 2.64" style="fill:#86a0ce"/><polygon points="12 14.73 14.27 13.36 14.27 10.64 12 12 12 14.73" style="fill:#a5b7f3"/><polygon points="12 14.73 9.73 13.36 9.73 10.64 12 12 12 14.73" style="fill:#728cba"/><polygon points="14.27 10.64 12 12 9.73 10.64 12 9.27 14.27 10.64" style="fill:#86a0ce"/><polygon points="10.18 5.73 13 8 14.01 4.52 10.18 5.73" style="fill:#a5b7f3;stroke:#a5b7f3;stroke-linejoin:round;stroke-width:0.619659284975729px"/><path d="M13,8a9,9,0,0,0-1-1.7c-.4-.46-.64-1-1-1.46A2.61,2.61,0,0,0,9.74,4,6,6,0,0,0,8,3.75H8a.75.75,0,1,1,0-1.5H8a7.47,7.47,0,0,1,2.2.28,4.18,4.18,0,0,1,2,1.35,3.87,3.87,0,0,1,1.06,1.94A3.76,3.76,0,0,1,13,8a0,0,0,0,1,0,0Z" style="fill:#a5b7f3"/></g></svg>